<svg width="163" height="38" viewBox="0 0 163 38" fill="none" xmlns="http://www.w3.org/2000/svg">
<path d="M2.96 29.4C2.96 29.64 2.92 29.8 2.84 29.88C2.76 29.96 2.58667 30 2.32 30H0.84C0.626667 30 0.48 29.9733 0.4 29.92C0.346667 29.84 0.32 29.7067 0.32 29.52V9.28C0.32 8.96 0.466667 8.8 0.76 8.8H2.52C2.81333 8.8 2.96 8.96 2.96 9.28V29.4ZM3.12 3.96C3.12 4.44 2.92 4.68 2.52 4.68H0.68C0.466667 4.68 0.32 4.62667 0.24 4.52C0.186667 4.41333 0.16 4.25333 0.16 4.04V0.919999C0.16 0.52 0.333334 0.32 0.68 0.32H2.6C2.94667 0.32 3.12 0.506666 3.12 0.88V3.96Z" fill="white"/>
<path d="M11.0569 29.4C11.0569 29.64 11.0169 29.8 10.9369 29.88C10.8569 29.96 10.6969 30 10.4569 30H8.93688C8.59021 30 8.41688 29.84 8.41688 29.52L8.45688 0.800001C8.45688 0.48 8.59021 0.32 8.85688 0.32H10.6569C10.9235 0.32 11.0569 0.48 11.0569 0.800001V29.4Z" fill="white"/>
<path d="M19.1538 29.4C19.1538 29.64 19.1138 29.8 19.0338 29.88C18.9538 29.96 18.7938 30 18.5538 30H17.0338C16.6871 30 16.5138 29.84 16.5138 29.52L16.5538 0.800001C16.5538 0.48 16.6871 0.32 16.9538 0.32H18.7538C19.0204 0.32 19.1538 0.48 19.1538 0.800001V29.4Z" fill="white"/>
<path d="M31.3706 28.2C32.624 28.2 33.8106 27.8667 34.9306 27.2C36.0773 26.5333 37.224 25.6133 38.3706 24.44V9.28C38.3706 8.96 38.544 8.8 38.8906 8.8H40.5706C40.864 8.8 41.0106 8.96 41.0106 9.28V29.56C41.0106 29.8533 40.8773 30 40.6106 30H38.8906C38.624 30 38.4906 29.8667 38.4906 29.6V27.16C38.4906 27.0267 38.464 26.9467 38.4106 26.92C38.3573 26.8933 38.264 26.9333 38.1306 27.04C36.584 28.3467 35.2373 29.24 34.0906 29.72C32.9706 30.1733 31.864 30.4 30.7706 30.4C29.544 30.4 28.4373 30.16 27.4506 29.68C26.4906 29.1733 25.7173 28.4667 25.1306 27.56C24.5706 26.6267 24.2906 25.5733 24.2906 24.4V9.32C24.2906 8.97333 24.464 8.8 24.8106 8.8H26.4906C26.784 8.8 26.9306 8.96 26.9306 9.28V23.52C26.9306 24.9067 27.3173 26.04 28.0906 26.92C28.8906 27.7733 29.984 28.2 31.3706 28.2Z" fill="white"/>
<path d="M46.9375 30C46.6175 30 46.4575 29.84 46.4575 29.52V9.24C46.4575 8.94667 46.5908 8.8 46.8575 8.8H48.5775C48.8442 8.8 48.9775 8.93333 48.9775 9.2V11.56C48.9775 11.6933 49.0042 11.7867 49.0575 11.84C49.1108 11.8667 49.2042 11.8133 49.3375 11.68C50.2175 10.9867 51.0308 10.4 51.7775 9.92C52.5242 9.41333 53.2708 9.04 54.0175 8.8C54.7908 8.53333 55.6308 8.4 56.5375 8.4C58.1642 8.4 59.4442 8.77333 60.3775 9.52C61.3108 10.24 61.9242 11.0267 62.2175 11.88C62.2708 11.9867 62.3508 12.0267 62.4575 12C62.5642 11.9733 62.6708 11.9067 62.7775 11.8C63.6842 11.08 64.5108 10.4667 65.2575 9.96C66.0308 9.45333 66.8042 9.06667 67.5775 8.8C68.3508 8.53333 69.1908 8.4 70.0975 8.4C72.0442 8.4 73.5375 8.96 74.5775 10.08C75.6442 11.1733 76.1775 12.6133 76.1775 14.4V29.48C76.1775 29.8267 76.0042 30 75.6575 30H73.9775C73.8442 30 73.7375 29.96 73.6575 29.88C73.5775 29.8 73.5375 29.68 73.5375 29.52V15.08C73.5375 13.6667 73.2042 12.5733 72.5375 11.8C71.8975 11 70.8575 10.6 69.4175 10.6C68.5642 10.6 67.7508 10.76 66.9775 11.08C66.2042 11.3733 65.5108 11.7467 64.8975 12.2C64.2842 12.6533 63.7375 13.08 63.2575 13.48C63.0175 13.6667 62.8442 13.84 62.7375 14C62.6575 14.16 62.6175 14.3867 62.6175 14.68V29.48C62.6175 29.8267 62.4575 30 62.1375 30H60.4575C60.2975 30 60.1775 29.96 60.0975 29.88C60.0175 29.8 59.9775 29.68 59.9775 29.52V15.08C59.9775 13.6667 59.6575 12.5733 59.0175 11.8C58.3775 11 57.3242 10.6 55.8575 10.6C54.6575 10.6 53.5642 10.88 52.5775 11.44C51.5908 12 50.4308 12.8533 49.0975 14V29.52C49.0975 29.84 48.9242 30 48.5775 30H46.9375Z" fill="white"/>
<path d="M83.9912 29.4C83.9912 29.64 83.9513 29.8 83.8713 29.88C83.7913 29.96 83.6179 30 83.3512 30H81.8712C81.6579 30 81.5113 29.9733 81.4313 29.92C81.3779 29.84 81.3512 29.7067 81.3512 29.52V9.28C81.3512 8.96 81.4979 8.8 81.7913 8.8H83.5513C83.8446 8.8 83.9912 8.96 83.9912 9.28V29.4ZM84.1513 3.96C84.1513 4.44 83.9513 4.68 83.5513 4.68H81.7113C81.4979 4.68 81.3512 4.62667 81.2712 4.52C81.2179 4.41333 81.1913 4.25333 81.1913 4.04V0.919999C81.1913 0.52 81.3646 0.32 81.7113 0.32H83.6312C83.9779 0.32 84.1513 0.506666 84.1513 0.88V3.96Z" fill="white"/>
<path d="M89.9281 30C89.6081 30 89.4481 29.84 89.4481 29.52V9.24C89.4481 8.94667 89.5815 8.8 89.8481 8.8H91.5681C91.8348 8.8 91.9681 8.93333 91.9681 9.2V11.56C91.9681 11.6933 91.9948 11.7867 92.0481 11.84C92.1281 11.8667 92.2215 11.8133 92.3281 11.68C93.2615 10.9867 94.1148 10.4 94.8881 9.92C95.6615 9.41333 96.4481 9.04 97.2481 8.8C98.0481 8.53333 98.9148 8.4 99.8481 8.4C101.955 8.4 103.555 8.96 104.648 10.08C105.741 11.1733 106.288 12.6 106.288 14.36V29.48C106.288 29.8267 106.128 30 105.808 30H104.128C103.968 30 103.848 29.96 103.768 29.88C103.688 29.8 103.648 29.68 103.648 29.52V15.08C103.648 13.6667 103.288 12.5733 102.568 11.8C101.875 11 100.755 10.6 99.2081 10.6C98.3548 10.6 97.5548 10.7333 96.8081 11C96.0881 11.24 95.3548 11.6133 94.6081 12.12C93.8615 12.6 93.0215 13.2267 92.0881 14V29.52C92.0881 29.84 91.9148 30 91.5681 30H89.9281Z" fill="white"/>
<path d="M123.89 27.32C122.85 28.3333 121.73 29.1067 120.53 29.64C119.33 30.1467 118.01 30.4 116.57 30.4C114.49 30.4 112.85 29.88 111.65 28.84C110.45 27.7733 109.85 26.36 109.85 24.6C109.85 23.2133 110.237 22.0267 111.01 21.04C111.784 20.0267 112.93 19.2267 114.45 18.64C115.97 18.0533 117.85 17.68 120.09 17.52L123.65 17.24C123.864 17.2133 124.024 17.16 124.13 17.08C124.264 16.9733 124.33 16.8267 124.33 16.64V15.48C124.33 13.9333 123.837 12.7067 122.85 11.8C121.89 10.8933 120.597 10.44 118.97 10.44C117.717 10.44 116.584 10.7333 115.57 11.32C114.557 11.88 113.637 12.72 112.81 13.84C112.73 13.9467 112.65 14.0267 112.57 14.08C112.517 14.1067 112.424 14.0933 112.29 14.04L110.65 13.36C110.57 13.3067 110.517 13.2533 110.49 13.2C110.464 13.12 110.504 13 110.61 12.84C111.437 11.5067 112.544 10.44 113.93 9.64C115.344 8.81333 117.064 8.4 119.09 8.4C120.77 8.4 122.184 8.68 123.33 9.24C124.504 9.77333 125.384 10.56 125.97 11.6C126.584 12.64 126.89 13.8667 126.89 15.28V29.48C126.89 29.6933 126.85 29.84 126.77 29.92C126.717 29.9733 126.597 30 126.41 30H124.93C124.77 30 124.65 29.96 124.57 29.88C124.49 29.7733 124.45 29.64 124.45 29.48L124.37 27.4C124.317 27.0267 124.157 27 123.89 27.32ZM124.33 19.64C124.33 19.1867 124.144 18.9867 123.77 19.04L120.77 19.28C119.384 19.36 118.17 19.5333 117.13 19.8C116.117 20.0667 115.264 20.4133 114.57 20.84C113.877 21.2667 113.357 21.7733 113.01 22.36C112.664 22.92 112.49 23.5733 112.49 24.32C112.49 25.5733 112.93 26.56 113.81 27.28C114.69 27.9733 115.877 28.32 117.37 28.32C118.277 28.32 119.157 28.16 120.01 27.84C120.864 27.4933 121.624 27.0667 122.29 26.56C122.93 26 123.424 25.4267 123.77 24.84C124.144 24.2533 124.33 23.6933 124.33 23.16V19.64Z" fill="white"/>
<path d="M136.339 10.84C136.126 10.84 136.019 10.9467 136.019 11.16V24.6C136.019 25.96 136.233 26.8533 136.659 27.28C137.086 27.7067 137.713 27.92 138.539 27.92H141.459C141.593 27.92 141.686 27.96 141.739 28.04C141.819 28.0933 141.859 28.1867 141.859 28.32V29.4C141.859 29.6133 141.726 29.76 141.459 29.84C141.219 29.8667 140.859 29.8933 140.379 29.92C139.926 29.9467 139.473 29.9733 139.019 30C138.566 30 138.219 30 137.979 30C136.326 30 135.139 29.6267 134.419 28.88C133.726 28.1067 133.379 26.8667 133.379 25.16V11.2C133.379 10.96 133.259 10.84 133.019 10.84H129.619C129.379 10.84 129.259 10.7333 129.259 10.52V9.12C129.259 8.90667 129.366 8.8 129.579 8.8H133.139C133.299 8.8 133.393 8.69333 133.419 8.48L133.819 2.08C133.819 1.76 133.939 1.6 134.179 1.6H135.619C135.913 1.6 136.059 1.77333 136.059 2.12V8.48C136.059 8.69333 136.153 8.8 136.339 8.8H141.619C141.833 8.8 141.939 8.90667 141.939 9.12V10.52C141.939 10.7333 141.819 10.84 141.579 10.84H136.339Z" fill="white"/>
<path d="M146.351 20.6C146.351 21.96 146.684 23.2267 147.351 24.4C148.017 25.5733 148.897 26.52 149.991 27.24C151.111 27.9333 152.364 28.28 153.751 28.28C155.217 28.28 156.484 27.9867 157.551 27.4C158.644 26.8133 159.564 25.9467 160.311 24.8C160.391 24.6667 160.471 24.6 160.551 24.6C160.631 24.5733 160.724 24.5867 160.831 24.64L162.191 25.4C162.404 25.5067 162.417 25.6667 162.231 25.88C161.564 26.8933 160.804 27.7333 159.951 28.4C159.124 29.0667 158.177 29.5733 157.111 29.92C156.044 30.24 154.871 30.4 153.591 30.4C151.617 30.4 149.884 29.9467 148.391 29.04C146.897 28.1333 145.724 26.8667 144.871 25.24C144.017 23.5867 143.591 21.7067 143.591 19.6C143.591 17.2533 144.031 15.2533 144.911 13.6C145.791 11.9467 146.977 10.6667 148.471 9.76C149.964 8.85333 151.657 8.4 153.551 8.4C155.471 8.4 157.137 8.82667 158.551 9.68C159.964 10.5333 161.057 11.76 161.831 13.36C162.604 14.96 162.991 16.8933 162.991 19.16C162.991 19.3467 162.964 19.5333 162.911 19.72C162.884 19.9067 162.724 20 162.431 20H146.631C146.551 20 146.484 20.0667 146.431 20.2C146.377 20.3067 146.351 20.44 146.351 20.6ZM159.631 18.12C159.924 18.12 160.111 18.08 160.191 18C160.271 17.92 160.311 17.7733 160.311 17.56C160.311 16.28 160.031 15.1067 159.471 14.04C158.937 12.9467 158.164 12.08 157.151 11.44C156.164 10.7733 154.977 10.44 153.591 10.44C152.017 10.44 150.697 10.8267 149.631 11.6C148.564 12.3467 147.751 13.3067 147.191 14.48C146.657 15.6533 146.391 16.8667 146.391 18.12H159.631Z" fill="white"/>
<path d="M0 36H163V38H0V36Z" fill="#FBD243"/>
</svg>
